<?xml version="1.0" encoding="UTF-8"?>
<svg id="_Слой_2" data-name="Слой 2" xmlns="http://www.w3.org/2000/svg" viewBox="0 0 1205.44 725.36">
  <defs>
    <style>
      .cls-1 {
        fill: #feed14;
      }

      .cls-1, .cls-2, .cls-3, .cls-4, .cls-5, .cls-6, .cls-7, .cls-8, .cls-9, .cls-10, .cls-11, .cls-12, .cls-13, .cls-14, .cls-15 {
        stroke-width: 0px;
      }

      .cls-2 {
        fill: #fdf585;
      }

      .cls-3 {
        fill: #feef26;
      }

      .cls-4 {
        fill: #feec04;
      }

      .cls-5 {
        fill: #feed15;
      }

      .cls-6 {
        fill: #fdf35f;
      }

      .cls-7 {
        fill: #fdf9c2;
      }

      .cls-8 {
        fill: #fdfacf;
      }

      .cls-9 {
        fill: #feed11;
      }

      .cls-10 {
        fill: #feed0d;
      }

      .cls-11 {
        fill: #fdf79d;
      }

      .cls-12 {
        fill: #feee18;
      }

      .cls-13 {
        fill: #feee1a;
      }

      .cls-14 {
        fill: #feed0a;
      }

      .cls-15 {
        fill: #feec03;
      }
    </style>
  </defs>
  <g id="_Слой_7" data-name="Слой 7">
    <g>
      <path class="cls-4" d="m691.28,2.23c108.08,11.42,165.47,38,165.47,38,31.17,13.82,59.85,31.41,81.24,58.91,29.75,38.25,32.84,79.48,13.79,123.07-3.61,8.27-7.53,16.7-12.94,23.83-7.46,9.84-8.94,20.61-9.9,32.31-3.03,36.92-6.53,73.82-10.46,110.66-1.66,15.52-10.43,27.28-25.09,32.58-11.83,4.28-24.46,7.57-36.95,8.56-18.88,1.49-37.95.75-56.94.59-4.65-.04-9.3-1.49-16.77-2.79,6.35-11.19,11.19-20.53,16.96-29.25,1.31-1.99,5.83-2.52,8.89-2.57,11.96-.2,23.94.23,35.9.11,12.81-.13,17.52-3.35,19.84-15.66,2.78-14.79,4.31-29.82,6.38-44.71-11.95-4.05-20.55-3.7-29.85,2.6-43.23,29.29-90.64,50.4-139.26,68.98-2.61,1-5.16,2.15-9.4,3.92,7.51,12.08,14.53,23.37,23.08,37.11,9.02-14.72,17.48-26.83,24.12-39.87,5.75-11.29,12.98-17.36,26.12-15.46,8.03,1.16,16.2,1.34,26.38,2.12-2.3,5.47-3.34,9.29-5.36,12.5-13.56,21.64-26.92,43.43-41.27,64.55-4.77,7.02-4.73,11.81-.12,18.54,13.02,19.04,25.59,38.4,37.97,57.87,4.33,6.81,7.58,14.3,12.47,23.66-15.44,3.33-28.77,3.12-41.9.61-3.23-.62-6.19-5.21-8.33-8.57-6.85-10.77-13.09-21.93-19.91-32.73-2.81-4.45-6.5-8.35-11.02-14.07-3.48,5.06-6.36,8.81-8.78,12.84-6.78,11.31-13.19,22.83-20.14,34.03-2.08,3.36-5.24,8.24-8.23,8.49-13.08,1.08-26.29.9-39.43.53-1.07-.03-3.27-5.29-2.69-7.55.87-3.4,3.72-6.3,5.74-9.41,14.6-22.45,29.03-45.01,43.92-67.27,3.7-5.54,4.17-9.67.31-15.46-10.92-16.43-21.14-33.32-31.85-50.38-4.51,1.38-8.29,2.54-11.55,3.54,3.74,14.91,8.32,28.93,10.64,43.31,3.81,23.69.88,47.07-10.09,68.55-15.99,31.3-51.5,46.04-91.13,39.04-33.02-5.83-56.93-30.79-62.63-67.75-2.59-16.81-2.09-34.09-3.04-51.98-6.08-1.52-12.02.22-16.04,7.47-2.98,5.38-6.49,10.47-9.4,15.88-2.84,5.29-1.91,10,2.31,14.62,5.26,5.77,10.36,11.82,14.6,18.35,14.85,22.91,5.87,47.84-20.03,55.49-27.43,8.09-55.39,7.45-83.4,3.83-7.21-.93-9.15-6.99-9.35-12.78-.73-21.78-.94-43.59-1.23-65.38-.14-10.22-.02-20.44-.02-31.32-2.64-.51-4.95-1.29-7.27-1.35-45.09-1.11-89.57-6.76-133.4-17.52-30.95-7.6-61.08-17.71-88.55-33.9-12.56-7.4-24.66-11.73-39.38-10.91-15.82.88-17.25-1.2-15.6-16.83,1-9.47-1.31-16.9-7-24.96-26.64-37.8-27.64-78.24-8.37-119.22,6.6-14.03,15.41-27.27,24.86-39.61,5.97-7.81,5.77-16.01,6.46-24.39,1.92-23.35,3.37-46.73,4.97-69.59-12.32-5.32-17.74-20.69-11.46-30.7,1.42-2.26,5.17-3.99,8.01-4.27,10.66-1.04,21.4-1.92,32.1-1.9,46.66.08,93.32.59,139.97.64,5.61,0,11.57-.96,16.77-2.99,95.46-37.36,134.47-43.04,218.27-57.05,9.36-1.56,24.77-3.91,44.2-5.7,8.66-.48,21.43-1.18,36.95-1.95,32.46-1.61,44-1.93,54.69-2.06,13.07-.16,25.81-.06,41.4,1.18,0,0,5.26.42,10.74,1Zm243.06,212.97v4.43c.44.07.87.15,1.31.22.47-1.37.94-2.74,1.41-4.11,12.29-24.67,14.78-49.9,6-75.77l-2.6-.19c-2.04,25.14-4.08,50.28-6.12,75.42Zm-846.25,11.54c-5.9,12.62-13.28,24.77-17.39,37.95-8.4,26.98-5.75,53.25,10.92,80.26,3.34-40.9,6.45-79.01,9.56-117.12v-6.47c-1.77,3.08-2.43,4.24-3.09,5.39Zm271.67,179.1c-.25,3.28-.33,6.58-.77,9.84-1.81,13.25-3.45,16.16-16.85,15.84-15.47-.37-30.99-2.95-46.28-5.69-14.08-2.53-20.82-12.84-21.95-26.31-.75-8.93.12-18.03.58-27.03,1.95-38.26,4.01-76.51,6.05-114.76,2.37-44.41,4.92-88.81,7.04-133.24.63-13.2-3.58-17.29-16.14-18.05-17.9-1.08-19.76-.04-21,15.57-4.49,56.64-8.73,113.3-12.98,169.95-2.49,33.26-4.91,66.53-7.1,99.81-.35,5.32-1.72,8.97-7.55,9.01-15.15.11-30.31.04-47.1.04,2.66-90.43,12.88-179.03,18.35-271.08-14.19,9.93-26.06,17.91-37.46,26.5-2.14,1.61-3.14,5.6-3.44,8.62-2.54,24.98-4.91,49.98-7.11,75-3.65,41.42-7.2,82.86-10.69,124.29-2.93,34.78-8.2,27.55,24.1,42.75,52.17,24.55,108.26,33.72,165.2,38.5,12.2,1.03,24.47,1.28,37.63,1.94v-41.54c2.38-6.05,5.66-9.67,13.23-10.53,28.91-3.28,57.6-3.32,86.06,2.98,16.55,3.66,24.98,15.7,23.6,32.48-.25,3.1-1.09,6.14-1.65,9.21l2.16,2.32c3.99-2.4,9.55-3.82,11.73-7.33,25.4-41.07,73.76-53.19,120.08-26.63,9.54,5.47,17.01,5.25,25.78.47-2.27-5.09-4.21-9.42-7.03-15.76,14.89,0,28.16-1.39,40.91.56,6.86,1.05,12.64,1.52,18.74-1.23,33.78-15.23,67.66-30.24,101.23-45.89,9.82-4.58,18.76-11.04,29-17.18-6.47-4.01-11.56-6.7-16.12-10.09-11.28-8.38-20.3-18.79-21.2-33.34-.84-13.53-.12-27.18.38-40.76,1.19-32.1,2.71-64.19,3.94-96.29.12-3.18.08-8.67-1.4-9.25-12.72-5-8.27-15.46-8.54-24.39-.23-7.68,3.81-11.42,11.35-11.44,16.51-.04,33.02.02,49.54-.02,7.42-.02,10.47,3.83,9.86,10.93-2.61,30.36-5.63,60.69-7.76,91.08-1.82,25.87-2.99,51.8-3.71,77.73-.31,11.12,5.36,15.62,17.32,16.18,10.79.5,12.28-.96,13.89-13.7.21-1.63.37-3.28.47-4.92,1.88-31.67,3.59-63.34,5.69-95,1.5-22.6,3.32-45.19,5.38-67.74,1.16-12.63,3.45-14.28,16.59-14.34,5.97-.03,11.93,0,20.12,0-5.93-5.85-9.98-10.41-14.59-14.3-33.22-28.03-72.58-43.78-113.95-54.44-90.02-23.18-181.4-22.69-272.89-11.85-56.94,6.74-112.89,19.11-167.64,36.43-7.46,2.36-14.87,4.91-22.25,7.51-6.98,2.47-13.9,5.13-21.77,8.05,27.49,19.63,32.5,29.03,32.13,61.06-.19,16.47-.81,32.96-2,49.38-2.69,36.96-6.21,73.87-8.71,110.85-1.69,25.06-2.78,50.19-3.12,75.31-.27,20.2,1.5,21.46,21.6,24,6.09.77,11.27,2.34,11.04,9.98Zm176.19,45.09c-5.47,19.1-4.71,37.96-3.38,56.81,1.33,18.89,14.55,33.51,30.73,34.47,24.48,1.46,40.69-8.9,42.75-30.85,1.71-18.21-.09-36.84-1.47-55.2-.46-6.07-4.48-11.87-6.86-17.78-21.23,4.31-40.94,8.32-61.77,12.55Zm-129.06,12.24v76.5c13.53-.58,26.55,2.57,40.45-4.97-3.55-4.63-6.12-8.58-9.29-11.96-5.6-5.99-11.97-11.29-17.31-17.49-9.11-10.56-9.47-16.77-2.89-29.02,2.25-4.19,4.6-8.32,7.21-13.05h-18.18ZM194.98,110.71c-8.04-3.59-34.77-5.72-35.54-3.11-2.22,7.56-2.74,15.62-3.82,23.5-.15,1.12.33,2.32.72,4.74,12.67-8.24,24.78-16.12,38.63-25.13Zm211.9,337.14c9.33-.71,17.99-.59,26.24-2.39,3.28-.72,5.63-5.68,8.4-8.71-3.14-2.01-6.06-4.87-9.5-5.8-3.83-1.04-8.15-.42-12.25-.37-13.56.16-14.08.8-12.89,17.28Z"/>
      <path class="cls-14" d="m1028.03,440.83c9.9,4.73,19.77,9.51,29.7,14.18,5.58,2.62,11.41,4.78,16.8,7.74,1.62.89,3.26,4.01,2.87,5.63-.4,1.7-3.11,3.79-5.01,4-3.11.34-6.56-.17-9.54-1.25-13.51-4.9-26.8-10.44-40.39-15.1-6.9-2.36-14.28-3.34-21.44-4.94-.74.61-1.48,1.21-2.22,1.82l1.8,12.28c-1.53,3.83-4.11,7.6-4.35,11.51-.31,5.18,1.86,10.48,1.76,15.71-.14,7.13,2.91,11.49,9.07,14.4,3.66,1.73,7.16,3.8,10.74,5.72,3.19,1.75,6.38,3.5,9.57,5.24.51-.86,1.03-1.72,1.54-2.57-2.73-1.76-5.46-3.53-8.19-5.29-2.76-2.37-5.27-5.13-8.32-7.04-12.92-8.11-14-19.66-10.06-32.83.46-1.55.91-3.09,1.37-4.64,2.42-.14,4.91.05,7.24-.49,7.49-1.72,10.24-.81,7.91,8.26-3.54,13.8.47,25.94,12.91,34.33,2.04,1.38,3.95,3.1,6.18,4.03,10.18,4.25,20.6,8.07,25.27,20.62-9.47-1.01-19.12-2.04-29.87-3.18-1.88,8.31-3.53,15.65-5.19,22.98l.1-.23c-1.29,1.65-2.57,3.3-3.86,4.95-1.59,3.06-2.17,5.45,2.78,4.16-.24,6.03,1.71,13.68-1.27,17.68-3.69,4.96-2.11,7.33.77,9.81,3.34,2.88,7.59,4.7,11.45,6.97-.06.65.23,1.1.85,1.35q-7.35,4.62-19.27.31c-3.99,7.37,2.47,17.47-6.92,25.21-1.48-13.94-2.8-26.44-4.13-38.94,1.44.42,2.88.83,4.31,1.25,2.39,1.15,4.78,2.3,7.21,3.47v-15.18c-1.99,2.96-3.27,4.86-4.54,6.76-2.41.66-4.83,1.32-7.24,1.97-.27-1.48-.54-2.96-.81-4.45-1.05-.04-2.09-.08-3.14-.13-1.25,13.82-2.51,27.65-3.76,41.47l-3.2.46c-1.13-1.67-3.25-3.36-3.23-5.02.06-7.39.47-14.81,1.25-22.16,1.05-9.88-1.04-18.53-7.9-26.04-5.37-5.88-4.95-11.22-.65-18.67,5.38-9.32,7.62-20.45,11.4-31.32-4.32-2.67-8.14-5.02-11.95-7.37.49-1.86.99-3.73,1.48-5.59,1.4.74,2.8,1.48,4.21,2.22.75-.87,1.51-1.74,2.26-2.61-2.56-1.68-5.13-3.36-7.69-5.04-.72-.7-1.45-1.39-2.17-2.09-.13.71-.25,1.41-.38,2.12.62,1.13,1.25,2.25,1.87,3.38-5.52-3.15-11.03-6.3-16.73-9.55-.14.93-.36,2.47-.59,4.01-2.42-1.75-4.84-3.49-7.26-5.24-1.88-3.89-3.77-7.78-5.65-11.67-.56.27-1.12.53-1.67.8-.09,1.91-.19,3.82-.28,5.73-8.1-10.45-10.1-23.07-4.63-31.54.73-1.13,3.26-1.1,7.61-2.41q3.91-6.04.33-24.37c2.12,0,4.13.08,6.13-.02,1.55-.08,3.09-.38,5.24-.66-1.71-4.25-4.87-8.25-4.14-11.33.78-3.28,5.25-5.68,8.26-8.61-1.11-3.42-2.58-7.93-4.24-13.03,5-1.43,8.44-2.41,11.92-3.4-1.49-3.82-4.13-7.37-3.64-10.44.32-2.04,5.21-3.21,7.84-5.08,3.09-2.19,6.08-4.23.38-7.58-2.62-1.54-3.88-5.37-6.13-8.71,4.95-1.86,9.35-3.52,14.16-5.33-10.82-10.04-6.89-11.07,6.55-18.33-2.65-2.03-5.18-3.97-9.28-7.11,5.26-3.68,9.65-6.75,15.03-10.51-1.58-.87-3.17-1.48-4.41-2.51-1.48-1.24-2.65-2.85-4.5-4.9,6.39-7.27,21.12-5.7,19.65-19.46,0,0-.05.14-.05.14,1.63-1.63,3.26-3.25,4.89-4.88,0,0-.05.03-.05.03,6.29-.66,4.95-5.71,5.56-9.64,10.56-4.35,33.99-4.64,45.82-.57-3.53,5.05-7.07,10.11-10.6,15.16-.61,5.58-1.22,11.16-1.83,16.73.84-.64,1.68-1.28,2.52-1.92,17.57,9.47,35.16,18.89,52.68,28.44,5.37,2.92,7.53,6.93,3.37,12.31-13.46-5.54-26.71-10.99-39.95-16.45-7.77-4.37-15.69-8.27-24.44-9.47-.43,1.18-.86,2.35-1.29,3.53,7.6,2.83,15.21,5.66,22.81,8.49,10.84,5.92,21.69,11.84,32.52,17.76,6.98,3.82,9.46,8.48,3.04,15.15-20.58-9.74-40.06-21.36-62.87-24.22,10.02,6.04,20.74,10.44,31.1,15.56,10.55,5.21,20.75,11.14,31.39,16.91-1.86,4.52-3.07,7.45-4.58,11.09-11.25-5.47-22.15-10.31-32.6-15.97-10.41-5.64-20.17-12.89-35.24-9.3,3.04,2.61,4.09,4.29,5.4,4.51,19.94,3.43,35.55,16.43,53.6,23.99,6.32,2.65,7.52,6.66,2.42,13.6-10.92-4.89-21.8-9.54-32.48-14.6-22.01-10.43-25.38-11.29-34.29-6.98,2.26,1.11,3.91,2.01,5.63,2.76,16.16,7.02,32.48,13.71,48.42,21.2,4.53,2.13,12.76,4.1,9.05,11.78-4.3,8.9-10.54,1.92-15.6-.11-13.3-5.35-26.43-11.14-39.62-16.76-4.71-2.35-9.27-6.01-15.68-1.86,4.11,6.73,9.34,7.29,15.48,5.28.94,1.27,1.6,3.13,2.85,3.71,16.13,7.48,32.34,14.77,48.52,22.12-.66,2.77-1.32,5.55-1.98,8.32-3.74-.28-7.76.2-11.19-.98-15.93-5.52-31.68-11.58-47.56-17.26-3.63-1.3-7.52-1.86-11.29-2.76-.26.75-.52,1.51-.78,2.26,22.11,9.66,44.23,19.32,66,28.83-1.04,8.96-3.88,12.15-10.86,9.12-8.68-3.77-17.24-7.84-26.06-11.24-6.46-2.49-13.26-4.1-19.91-6.11-3.45-2.45-6.89-4.89-10.34-7.34.68-.14,1.35-.28,2.03-.42-.64-.26-1.28-.51-1.93-.77-.73-.3-1.49-.44-2.28-.43-.49-.47-.98-.94-1.46-1.42.11.58.23,1.16.34,1.74-2.76,1.59-5.51,3.19-8.27,4.78l.14,2.68c7.18,1.61,14.36,3.23,21.54,4.84Zm-29.42,68.83c.29.46.58.92.87,1.38-.01-.25.07-.6-.06-.71-.27-.23-.66-.34-.99-.5-.38-.56-.76-1.12-1.14-1.69-.23.43-.45.86-.68,1.28.67.08,1.35.16,2.02.23Zm12.31,7.51l-1.93-1.04c.63.36,1.25.73,1.88,1.09,1,.48,2,.95,2.99,1.43l.32-.99c-1.09-.16-2.17-.33-3.26-.49Zm-17.53-118.92c-.69,1.29-1.37,2.59-2.06,3.88.55.21,1.09.43,1.64.64.3-1.35.59-2.71.89-4.06.33-.5.67-1,1-1.5-.49.35-.98.7-1.47,1.04Zm5.28,149.93c-.59,4.11-.99,6.88-1.39,9.66,5.02-1.27,3.93,8.33,10.63,5.51,4.76-2.01,3.49-5.3,4.53-8.17-4-2.03-7.52-3.82-13.77-7Zm-17.7-55.25c1.06-.3,2.12-.59,3.18-.89-1.23-3.91-2.46-7.83-3.68-11.74-.86.24-1.72.47-2.58.71,1.03,3.97,2.06,7.95,3.08,11.92Zm45.72-114.06c.54-1.13,1.09-2.25,1.63-3.38-2.93-.74-5.85-1.48-8.78-2.23-.25.86-.51,1.71-.76,2.57,2.64,1.01,5.28,2.03,7.92,3.04Zm12.74-59.76c-.05.87-.11,1.74-.16,2.62,2.55.21,5.09.43,7.64.64.05-.81.11-1.62.16-2.43-2.55-.28-5.1-.55-7.64-.83Zm-25.1,97c.35-.95.7-1.89,1.05-2.84l-5.99-1.68c-.23.73-.46,1.45-.69,2.18,1.88.78,3.75,1.56,5.63,2.34Zm12.11-61.18c-.22.81-.43,1.62-.65,2.43,2.17.57,4.33,1.14,6.5,1.71.21-.79.41-1.58.62-2.37-2.16-.59-4.31-1.18-6.47-1.77Zm-59.38,131.93c.54-.15,1.07-.31,1.61-.46-.26-1.75-.52-3.49-.78-5.24l-2.89.9c.69,1.6,1.37,3.2,2.06,4.8Zm48.34-143.86c-.71-.32-1.42-.63-2.12-.95-.73,1.85-1.46,3.7-2.19,5.55.56.24,1.12.49,1.68.73.88-1.78,1.75-3.55,2.63-5.33Zm21.6-1.58l1.63-2.86c-2.08-.59-4.17-1.19-6.25-1.78-.22.55-.45,1.11-.67,1.66,1.77,1,3.53,1.99,5.3,2.99Zm-.09,178.41c.08.71.16,1.42.24,2.14,2.05-.22,4.09-.45,6.14-.67-.03-.49-.07-.98-.1-1.47h-6.28Zm-15.3-124.14c.04-.56.07-1.13.11-1.69-1.72-.13-3.45-.25-5.17-.38-.04.6-.08,1.19-.11,1.79,1.73.09,3.45.19,5.18.28Zm30.25-95.45c-.89.78-1.81,1.45-2.49,2.3-.14.17.58,1.03.91,1.58.88-.54,1.88-.97,2.57-1.68.18-.19-.56-1.27-.99-2.19Zm-32.22,27.32c-.28.24-.84.52-.81.7.11.66.42,1.29.66,1.94.28-.24.82-.52.79-.71-.11-.66-.41-1.29-.65-1.93Zm.01-34.88l-.46.71.76.09-.29-.79Zm11.91,225.25c-.15.24-.47.57-.4.71.16.31.51.53.78.78.15-.49.31-.97.46-1.46-.28,0-.56,0-.84-.02Z"/>
      <path class="cls-14" d="m1132.84,429.77c4.17,12.38,4,12.7-7.27,13.79,1.49,4.29,4.34,8.72,3.89,12.8-.21,1.91-6.79,3.12-10.08,4.48,1.25,4.08,2.75,8.98,4.25,13.87-4.34.67-8.67,1.33-16.74,2.57,6.13,3.43,10.32,5.77,14.4,8.05-9.1,14.28-21.47,1.67-29.82,9.17-6.59-15.51,2-28.26,3.88-41.66.77-2.36,1.54-4.71,2.31-7.07,1.53-3.49,3.06-6.98,4.59-10.46.47-1.56.93-3.11,1.4-4.67.41-.88.81-1.77,1.22-2.65,1.63-9.37,2.97-18.81,5-28.09,1.2-5.49,3.54-10.73,5.27-16.11,4.23-13.14,8.4-26.3,12.6-39.45,1.08-.33,2.16-.67,3.24-1-1.03-.75-2.07-1.49-3.1-2.24-.83-17.33-15.12-40.49-30.26-49.05,3.4-.16,6.81-.31,10.21-.47,24.13,10.51,40.22,27.57,44.7,54.25,1.64,9.76,3.58,19.47,5.45,29.56-3.83.25-6.06.4-8.19.54,1.25,6.25,2.42,12.1,3.81,19.05-4.75-1.81-7.44-2.84-10.76-4.1,1.92,7.36,3.41,13.06,5.39,20.62-5.38-1.28-7.91-1.88-11.99-2.86,1.37,2.8,2.02,4.48,2.96,5.99,4.7,7.59,4.07,9.9-3.58,12.64l-4.76-.88c.67,1.13,1.33,2.26,2,3.39Zm1.43-101.71c-.51.04-1.02.08-1.53.11.11,1.43.23,2.85.34,4.28.49-.03.98-.07,1.47-.1-.09-1.43-.19-2.86-.28-4.29Z"/>
      <path class="cls-13" d="m270.17,667.05c7.04-2.74,10.79-1.75,12.93,5.25,3.47,11.38,7.9,22.46,12.61,35.6,4.7-12.94,8.68-24.19,12.88-35.36,2.52-6.7,2.67-6.64,12.36-6.01v54.66c-4.73,1.64-8.64,2.39-8.68-4.84-.04-8.91,0-17.83-1.74-27.11-4.35,11.16-8.7,22.32-14.01,35.94-10.95-12.04-11.05-26.47-19.14-39.88v36.14c-.9.46-1.8.91-2.7,1.37-1.5-1.87-4.28-3.71-4.32-5.6-.34-16.81-.2-33.63-.2-50.18Z"/>
      <path class="cls-10" d="m134.4,721.94v-55.31c5.8-2.36,9.51-1.07,11.66,5.62,3.59,11.14,7.81,22.07,13.98,32.8,3.76-10.73,7.44-21.48,11.32-32.16,2.47-6.79,2.6-6.74,13.12-6.4,0,16.62.21,33.34-.25,50.04-.06,2.29-3.48,4.48-5.34,6.72-.87-.44-1.74-.88-2.6-1.32v-34.05c-.73-.19-1.47-.37-2.2-.56-4.58,11.92-9.17,23.84-13.75,35.75-1.45.04-2.9.08-4.35.13-4.5-11.78-8.99-23.57-13.68-35.84-4.82,11.45,3.57,24.94-4.81,35.02-1.04-.14-2.08-.28-3.11-.42Z"/>
      <path class="cls-9" d="m488.54,725.18c-10.61-10.98-9.84-24.08-17.04-34.55-4.45,10.52,2.79,22.92-4.36,31.86-1.13-.17-2.27-.34-3.4-.51v-55.37c5.65-2.51,9.23-.76,11.34,5.68,3.56,10.91,7.53,21.69,13.49,33.09,3.94-10.95,8.12-21.82,11.74-32.87,2.09-6.4,5.47-8.63,12.22-5.58v53.83q-5.11.34-11.26-28.06c-3.89,9.92-7.77,19.84-12.72,32.47Z"/>
      <path class="cls-10" d="m1162.99,688.46c-3.81,11.55,3.06,24.1-4.43,33.88-1.05-.13-2.11-.26-3.16-.4v-55.17c5.97-2.86,9.48-.89,11.57,5.57,3.51,10.89,7.47,21.63,13.67,32.92,3.87-10.8,7.87-21.55,11.55-32.42,2.01-5.94,4.88-9.33,13.28-5.24-.8,17.58-1.61,35.84-2.65,54.09-.01.25-2.94.34-5.49.6v-34.6c-.75-.19-1.5-.38-2.25-.57-4.58,11.84-9.15,23.68-14.78,38.24-10.14-11.88-10.67-25.62-17.28-36.89Z"/>
      <path class="cls-13" d="m728.36,721.92c-10.08,2.71-15.93-1.76-20.27-10.68-2.61-5.36-4.48-12.39-13.84-14.14v23.96c-6.09,1.74-10.01,2.31-10.01-4.79,0-16.39,0-32.77,0-50.72,6.18,0,11.4.12,16.61-.03,8.79-.25,16.97,1.24,20.06,10.71,3.03,9.28-1.37,15.93-11.07,20.74,4.69,7.56,9.09,14.81,13.75,21.89.36.55,2.58-.12,3.93-.22.28,1.09.56,2.19.83,3.28Zm-34.17-28.78c7.14-3,12.66-4.64,17.27-7.68,1.32-.87,1.04-7.73-.34-8.47-4.81-2.59-10.41-3.71-16.93-5.77v21.91Z"/>
      <path class="cls-13" d="m70.61,697.41c4.66,8,9.14,15.69,13.69,23.51-6.4,3.14-9.93,1.01-12.64-4.13-2.67-5.08-5.45-10.16-8.77-14.81-1.52-2.13-4.45-3.27-7.19-5.16-1.63,9.63-2.86,17.4-4.49,25.09-.08.39-3.6.05-6.11.05v-56.34c6.85,0,13.65-.11,20.45.03,7.2.15,13.19,3.15,15.44,10.1,2.32,7.16.6,13.83-6.25,18.34-1.29.85-2.42,1.94-4.13,3.33Zm-16.18-4.82c6.87-2.43,12.52-3.3,16.46-6.37,1.66-1.3.98-9.58-.87-10.58-4.36-2.35-10.05-2.22-15.59-3.17v20.11Z"/>
      <path class="cls-1" d="m388.6,721.03v-24.48h-22.7c0,6.2-.1,12.55.03,18.9.12,6.09-2.32,8.3-8.79,5.8v-54.45c5.87-2.5,8.98-1.17,8.78,5.91-.13,4.84-.02,9.68-.02,15.24h22.55v-21.35c5.24-1.26,9.27-2.19,9.33,4.3.14,15.21.05,30.43.04,45.64,0,5.98-3.19,6.72-9.22,4.48Z"/>
      <path class="cls-1" d="m775.19,696.2c.13-18.46,8.09-29.89,20.71-31.2,9.45-.98,17.02,2.35,21.77,10.87,5.32,9.54,5.82,19.55,2.5,29.84-3.76,11.65-11.41,17.46-22.65,17.17-10.38-.27-18.92-7.59-21.5-18.77-.73-3.18-.7-6.53-.84-7.9Zm9.36-2.69c.42,3.2.45,7.39,1.6,11.24,1.85,6.17,5.23,11.27,12.79,11.03,6.75-.22,10.93-4.32,11.72-10.47.91-7.1,1.11-14.5.19-21.58-.92-7.02-5.25-12.08-13.33-11.54-8.02.54-10.88,6.27-12.2,13.13-.46,2.39-.47,4.87-.77,8.19Z"/>
      <path class="cls-5" d="m454.76,692.4c-1.31,10.35-3.34,19.46-11.4,26-10.23,8.29-25.23,5.45-32.24-5.83-6.86-11.04-6.33-28.18,1.2-38.71,8.88-12.41,27.19-12.5,35.61.5,3.42,5.28,4.62,11.99,6.83,18.05Zm-11.05,1.71c-.02-14.28-5.28-22.41-14.24-22.02-8.86.38-14.03,9.15-13.48,22.84.54,13.6,5.76,21.13,14.42,20.81,8.59-.32,13.33-8.02,13.31-21.63Z"/>
      <path class="cls-13" d="m634.2,721.83c-8.45,2.46-13.97-.59-18.15-8.28-3.44-6.35-8.16-12-12.31-17.96-1.1.21-2.21.42-3.31.63-.55,8.27-1.11,16.54-1.69,25.22-4.61,1.33-8.69,2.23-8.77-4.3-.17-15.25-.01-30.51-.09-45.77-.03-6.44,3.75-6.07,9.28-4.95v21.31c12.41-5.08,14.71-21.35,30.33-20.43-6.18,7.15-12.37,14.3-18.92,21.87,6.29,9.21,12.2,18.1,18.45,26.75.86,1.19,3.4,1.16,5.16,1.7,0,1.41.01,2.82.02,4.23Z"/>
      <path class="cls-13" d="m873.92,722.68c-19.82-.68-18.93-20.14-32.71-27.33-.67,9.06-1.28,17.18-1.94,26.09-4.61,1.3-8.68,2.13-8.7-5.04-.04-15.2-.25-30.41.27-45.6.07-2.13,3.87-4.14,5.94-6.21.98.46,1.96.92,2.93,1.38v22.33c12.03-6.46,15.54-20.95,28.1-23.37l2.36,2.43c-6.22,7.16-12.45,14.31-18.91,21.75,7.27,10.77,14.11,20.91,22.65,33.57Z"/>
      <path class="cls-3" d="m217.73,666.54c7.83-2.21,9.73.61,9.6,6.5-.21,9.47-.24,18.97.13,28.43.41,10.35,3.77,14.08,11.64,14,7.85-.08,10.95-3.72,11.28-14.29.31-9.88-.12-19.79.36-29.66.1-2.01,2.79-3.9,4.28-5.85,1.43,2.02,4,4,4.08,6.08.4,10.29.71,20.64,0,30.89-1,14.21-9.07,20.96-22.73,20.25-12.05-.63-18.33-7.69-18.6-21.47-.23-11.48-.05-22.97-.05-34.89Z"/>
      <path class="cls-13" d="m92.25,666.06h31.23q-.91,5.61-21.59,7.85v13.7c6.18.82,12.53,1.67,18.87,2.51,0,1.37.02,2.74.02,4.11-5.96.82-11.93,1.63-18.8,2.58v18.25h24.11c-3.85,8.26-12.22,9.41-33.84,6.09v-55.08Z"/>
      <path class="cls-13" d="m553.71,695.26c-5.89.35-11.79.7-18.32,1.1v18.12c7.8.38,15.41.76,23.14,1.14-1.79,7.77-5.36,8.4-32.36,6.12v-55.34h31.12q-1.18,5.04-21.85,7.69v13.29c6.33,1.1,12.6,2.19,18.87,3.28-.2,1.54-.39,3.07-.59,4.61Z"/>
      <path class="cls-12" d="m1027.37,710.4c6.37,1.82,11.93,4.11,17.68,4.73,2.33.25,6.52-2.66,7.2-4.92.68-2.28-1.17-6.58-3.29-8.17-4.89-3.67-10.88-5.84-15.92-9.34-5.86-4.07-8.89-10.05-6.48-17.19,2.35-6.97,8.16-10.17,15.25-10.72,6.93-.54,13.18,1.13,16.91,7.63.52.91-.69,2.81-1.16,4.46-5.09-1.64-9.5-3.86-14.06-4.21-2.57-.2-6.84,2.15-7.65,4.35-.8,2.16.99,6.58,3.06,8.23,4.11,3.29,9.27,5.24,13.87,7.95,6.56,3.87,10.72,9.33,8.8,17.29-1.87,7.72-7.56,11.55-15.29,12.17-8.14.66-15.82-.32-20.05-8.64-.46-.91.81-2.7,1.13-3.62Z"/>
      <path class="cls-13" d="m1146.18,714.98c-4.62,8.3-12.72,9.14-33,6.24v-54.65h31.12c1.87,7.9-3.98,6.15-7.96,6.33-4.4.2-8.82.04-13.81.04v14.3c6.68,1.26,12.81,2.41,18.93,3.56-.11,1.34-.23,2.68-.34,4.03-5.76.56-11.53,1.12-18.24,1.77v18.38h23.28Z"/>
      <path class="cls-1" d="m634.2,721.83c0-1.41-.01-2.82-.02-4.23,5.13-15.58,10.11-31.21,15.55-46.69.76-2.15,3.82-4.96,5.67-4.86,1.93.11,4.56,3.05,5.38,5.3,5.87,16.21,11.36,32.56,16.98,48.89q-8.2,2.11-15.03-14.6h-15.72c-6.24,4.71-1.49,16.57-12.81,16.19Zm21.63-39.6c-.89-.15-1.79-.3-2.68-.45-1.5,4.99-2.99,9.99-4.87,16.25,4.91-.4,7.93-.65,11.86-.98-1.62-5.57-2.96-10.2-4.31-14.82Z"/>
      <path class="cls-5" d="m728.36,721.92c-.28-1.09-.56-2.19-.83-3.28,5.25-15.98,10.35-32,15.91-47.87.74-2.11,3.55-4.18,5.79-4.78,1.11-.3,3.91,2.52,4.61,4.41,6.04,16.53,11.76,33.17,17.63,49.91q-8.52,1.55-14.91-14.59h-16c-6.64,3.91-.92,16.17-12.19,16.19Zm25.82-24.68c-1.94-5.57-3.53-10.12-5.11-14.67-.88.1-1.76.21-2.63.31-1.28,4.61-2.57,9.22-4.16,14.95,4.71-.24,7.71-.39,11.91-.6Z"/>
      <path class="cls-10" d="m.2,722.35c-.07-18.86-.13-37.72-.2-56.58,7-.01,14.04-.45,21,.06,10.58.77,15.94,6.06,16.16,14.96.24,9.54-5.34,15.61-15.83,16.93-3.62.45-7.3.39-12.7.64,0,5.96-.31,11.56.08,17.12.47,6.74-3.39,7.41-8.51,6.87Zm8.35-29.79c7.11-2.29,13.17-3.51,18.3-6.38,1.42-.8,1.45-7.56-.25-9.76-4.72-6.09-11.47-3.76-18.05-2.77v18.91Z"/>
      <path class="cls-9" d="m972.22,676.36c-3.19-1.22-6.41-3.5-9.55-3.38-4.04.16-8.02,2.24-12.02,3.49,1.94,3.61,3.09,8.16,6.01,10.61,4.65,3.91,10.97,5.8,15.67,9.66,5.89,4.83,5.67,11.7,2.46,18.03-3.33,6.59-12.93,9.9-21.86,7.52-5.62-1.5-11.64-3.47-11.18-13.5,4.89,2.62,8.05,5.06,11.61,6.04,5.2,1.42,11.24,2.26,14.15-3.84,2.91-6.12-2.17-8.8-6.55-11.27-3.94-2.22-8.11-4.08-11.92-6.5-6.16-3.92-9.16-9.7-7.28-16.9,1.88-7.2,7.41-10.81,14.6-11.26,7.51-.48,14.72.3,15.86,11.3Z"/>
      <path class="cls-14" d="m908.4,694.89c-7.71.6-13.63,1.06-20.27,1.57v18.1c7.76.37,15.41.73,23.15,1.09-1.81,7.63-5.56,8.29-31.24,5.87v-54.98h33.87c-7.98,10.29-17.54,3.94-25.54,7.51v13.04c5.32,4.67,14.76-2.23,20.04,7.8Z"/>
      <path class="cls-12" d="m1021.92,667.51c-2.14,3.93-3.99,8.05-6.47,11.76-7,10.5-12.01,21.4-10.1,34.56.79,5.42-.1,10.36-9.72,7.25,5.29-20.73-6.75-36.95-17.53-54.96,17.48-1.88,14.69,16.07,23.66,21.08,7.24-6.04,6.83-18.9,17.51-21.86.88.72,1.76,1.45,2.64,2.17Z"/>
      <path class="cls-13" d="m1080.7,675.51c-5.82-5.16-14.59,1.76-16.62-8.99h40.33q-1.09,6.12-14.45,7.04c0,13.52.13,27.26-.05,40.99-.09,6.93-.34,6.93-9.21,6.57v-45.61Z"/>
      <path class="cls-13" d="m1053.35,566.54c-2.77-1.78-5.53-3.57-8.3-5.35-.84.72-1.68,1.44-2.52,2.16,2.29,5.04,5.11,9.91,6.73,15.16,1.51,4.89,5.46,11.21-3.66,13.55-.04-1.09-.09-2.18-.13-3.27-.26-7.44-.94-14.7-8.05-19.29.04-4.04.08-8.08.12-12.11-3.38,1.12-6.77,2.23-10.15,3.35.11-1.37.21-2.74.32-4.11.19-1.63.39-3.27.58-4.9,0,0-.1.23-.1.23,1.49-.63,2.93-1.44,4.47-1.88,14.59-4.17,20.9.3,23.58,16.65-.96-.06-1.93-.11-2.89-.17Z"/>
      <path class="cls-15" d="m205.05,667.28v53.72c-.65.6-1.3,1.19-1.95,1.79-1.92-1.9-5.45-3.76-5.51-5.71-.46-15.58-.43-31.18-.02-46.76.05-1.85,3.28-3.62,5.04-5.43.81.8,1.63,1.59,2.44,2.39Z"/>
      <path class="cls-3" d="m1076.31,275.36c5.86,1.31,11.73,2.63,17.59,3.94-.89,3.29-1.78,6.58-2.66,9.87-5.28-4.02-6.67,1.22-9.48,3.75-7.37,6.62-13.95,5.34-19.24-3.41,7.48-1.92,11.97-6.75,13.8-14.16Z"/>
      <path class="cls-14" d="m1003.74,465.39c-.46,1.55-.91,3.1-1.37,4.64-3.94,13.16-2.86,24.71,10.06,32.83,3.05,1.91,5.56,4.67,8.32,7.04-.97.88-1.94,1.75-2.91,2.63-3.57-1.92-7.07-3.99-10.74-5.72-6.16-2.9-9.21-7.27-9.07-14.4.1-5.23-2.08-10.53-1.76-15.71.24-3.91,2.81-7.68,4.35-11.51,1.05.07,2.09.13,3.14.2Z"/>
      <path class="cls-14" d="m1015.75,428.2c.79-.01,1.55.13,2.28.43l-.1,1.19c3.45,2.45,6.89,4.89,10.34,7.34-.08,1.22-.16,2.45-.24,3.67-7.18-1.61-14.36-3.23-21.54-4.84l-.14-2.68c2.76-1.59,5.51-3.19,8.27-4.78l1.12-.33Z"/>
      <path class="cls-14" d="m968.68,495.14c.22-1.54.45-3.08.59-4.01,5.7,3.25,11.21,6.4,16.73,9.55.64.67,1.27,1.34,1.91,2.01-.49,1.86-.99,3.73-1.48,5.59-5.06-3.17-10.12-6.34-15.19-9.5-.88-1.28-1.76-2.57-2.64-3.85,0,0,.08.21.08.21Z"/>
      <path class="cls-14" d="m1091.23,289.18c.89-3.29,1.78-6.58,2.66-9.87,0,0,.04.22.04.22.37,6.14,4.33,5.95,8.76,4.95l-.04-.02c1.72,2.37,3.45,4.74,5.17,7.12-3.4.16-6.81.31-10.21.47-2.13-.95-4.26-1.91-6.38-2.86Z"/>
      <path class="cls-6" d="m1045.47,588.79c.04,1.09.09,2.18.13,3.27-2.2,1.53-4.4,3.06-6.59,4.59-.62-.25-.91-.7-.85-1.35-3.64-7.48-8.39-14.84-2.65-23.38,1.04,6.97-3.31,17.11,9.96,16.88Z"/>
      <path class="cls-3" d="m1015.98,289.43c-1.4.52-2.8,1.04-7.19,2.66,3.01-5.59,4.9-9.11,6.79-12.62,1.52.16,3.04.32,4.56.47l.63,4.78s.05-.03.05-.03c-1.63,1.63-3.26,3.25-4.89,4.88,0,0,.05-.14.05-.14Z"/>
      <path class="cls-14" d="m953.82,484.75c.09-1.91.19-3.82.28-5.73.56-.27,1.12-.53,1.67-.8,1.88,3.89,3.77,7.78,5.65,11.67-2.54-1.72-5.07-3.43-7.61-5.15Z"/>
      <path class="cls-14" d="m1020.77,284.72c-.21-1.59-.42-3.19-.63-4.78.22-.94.44-1.89.67-2.83,1.84-.68,3.69-1.35,5.53-2.03-.62,3.92.72,8.98-5.56,9.64Z"/>
      <path class="cls-6" d="m1053.35,566.54c.96.06,1.93.11,2.89.17.65,2.71,1.31,5.41,1.96,8.12l-2.18.55c-.89-2.95-1.78-5.9-2.67-8.84Z"/>
      <path class="cls-3" d="m1102.69,284.47c-4.42,1-8.39,1.19-8.76-4.95,2.92,1.65,5.84,3.3,8.76,4.95Z"/>
      <path class="cls-14" d="m1008.42,581.51c2.41-.66,4.83-1.32,7.24-1.97-.89,1.65-1.78,3.3-2.67,4.94-1.44-.42-2.88-.83-4.31-1.25-.45-.5-.53-1.08-.26-1.72Z"/>
      <path class="cls-6" d="m1020.81,277.11c-.22.94-.44,1.89-.67,2.83-1.52-.16-3.04-.32-4.56-.47,1.74-.79,3.48-1.57,5.23-2.36Z"/>
      <path class="cls-14" d="m968.6,494.94c.88,1.28,1.76,2.57,2.64,3.85-.88-1.28-1.76-2.57-2.64-3.85Z"/>
      <path class="cls-8" d="m998.8,452.91c.74-.61,1.48-1.21,2.22-1.82-.74.61-1.48,1.21-2.22,1.82Z"/>
      <path class="cls-11" d="m934.35,215.21c.91.18,1.81.36,2.72.54-.47,1.37-.94,2.74-1.41,4.11-.44-.07-.87-.15-1.31-.22v-4.43Z"/>
      <path class="cls-14" d="m1035.51,571.91c-5.74,8.54-.99,15.9,2.65,23.38-3.86-2.28-8.11-4.1-11.45-6.97-2.88-2.48-4.46-4.85-.77-9.81,2.98-4,1.03-11.65,1.27-17.68h-.18s.32-.24.32-.24c0,0,.04.14.04.14,3.38-1.12,6.77-2.23,10.15-3.35-.04,4.04-.08,8.08-.12,12.11-.64.8-1.28,1.61-1.91,2.42Z"/>
      <path class="cls-14" d="m998.67,548.19c6.25,3.18,9.77,4.96,13.77,7-1.04,2.86.23,6.16-4.53,8.17-6.7,2.82-5.61-6.77-10.63-5.51.4-2.77.8-5.55,1.39-9.66Z"/>
      <path class="cls-14" d="m1040.72,397.74c-.07,1.14-.14,2.28-.21,3.42-6.13,2.02-11.37,1.46-15.48-5.28,6.42-4.15,10.98-.49,15.68,1.86Z"/>
      <path class="cls-14" d="m1013,584.48c.89-1.65,1.78-3.3,2.67-4.94,1.28-1.9,2.56-3.81,4.54-6.76v15.18c-2.44-1.17-4.83-2.32-7.21-3.47Z"/>
      <path class="cls-14" d="m980.97,492.94c-1.03-3.97-2.06-7.95-3.08-11.92.86-.24,1.72-.47,2.58-.71,1.23,3.91,2.46,7.83,3.68,11.74-1.06.3-2.12.59-3.18.89Z"/>
      <path class="cls-14" d="m1026.69,378.88c-2.64-1.01-5.28-2.03-7.92-3.04.25-.86.51-1.71.76-2.57,2.93.74,5.85,1.48,8.78,2.23-.54,1.13-1.09,2.25-1.63,3.38Z"/>
      <path class="cls-14" d="m1017.83,512.52c.97-.88,1.94-1.75,2.91-2.63,2.73,1.76,5.46,3.53,8.19,5.29-.51.86-1.03,1.72-1.54,2.57-3.19-1.75-6.38-3.5-9.57-5.24Z"/>
      <path class="cls-14" d="m987.91,502.7c-.64-.67-1.27-1.34-1.91-2.01-.62-1.13-1.25-2.25-1.87-3.38.85-.01,1.7-.02,2.55-.03,2.56,1.68,5.13,3.36,7.69,5.04-.75.87-1.51,1.74-2.26,2.61-1.4-.74-2.8-1.48-4.21-2.22Z"/>
      <path class="cls-14" d="m1039.43,319.12c2.55.28,5.1.55,7.64.83-.05.81-.11,1.62-.16,2.43-2.55-.21-5.09-.43-7.64-.64.05-.87.11-1.74.16-2.62Z"/>
      <path class="cls-14" d="m1014.33,416.13c-1.88-.78-3.75-1.56-5.63-2.34.23-.73.46-1.45.69-2.18l5.99,1.68c-.35.95-.7,1.89-1.05,2.84Z"/>
      <path class="cls-14" d="m1026.44,354.95c2.16.59,4.31,1.18,6.47,1.77-.21.79-.41,1.58-.62,2.37-2.17-.57-4.33-1.14-6.5-1.71.22-.81.43-1.62.65-2.43Z"/>
      <path class="cls-14" d="m967.06,486.88c-.69-1.6-1.37-3.2-2.06-4.8l2.89-.9c.26,1.75.52,3.49.78,5.24-.54.15-1.07.31-1.61.46Z"/>
      <path class="cls-14" d="m1015.4,343.02c-.88,1.78-1.75,3.55-2.63,5.33-.56-.24-1.12-.49-1.68-.73.73-1.85,1.46-3.7,2.19-5.55.71.32,1.42.63,2.12.95Z"/>
      <path class="cls-14" d="m1037,341.43c-1.77-1-3.53-1.99-5.3-2.99.23-.55.45-1.11.67-1.66,2.08.59,4.17,1.19,6.25,1.78l-1.63,2.86Z"/>
      <path class="cls-6" d="m1015.93,289.57c1.63-1.63,3.26-3.25,4.89-4.88-1.63,1.63-3.26,3.25-4.89,4.88Z"/>
      <path class="cls-14" d="m1036.91,519.84h6.28c.03.49.07.98.1,1.47-2.05.22-4.09.45-6.14.67-.08-.71-.16-1.42-.24-2.14Z"/>
      <path class="cls-14" d="m1021.61,395.7c-1.73-.09-3.45-.19-5.18-.28.04-.6.08-1.19.11-1.79,1.72.13,3.45.25,5.17.38-.04.56-.07,1.13-.11,1.69Z"/>
      <path class="cls-14" d="m1051.86,300.26c.43.92,1.17,2,.99,2.19-.7.72-1.69,1.15-2.57,1.68-.32-.54-1.04-1.41-.91-1.58.68-.85,1.6-1.51,2.49-2.3Z"/>
      <path class="cls-14" d="m1027.71,556.62c-.11,1.37-.21,2.74-.32,4.11l-.04-.14-.32.24h.18c-4.94,1.29-4.36-1.1-2.78-4.16,1.09-.01,2.18-.03,3.28-.04Z"/>
      <path class="cls-14" d="m993.86,398.72c-.3,1.35-.59,2.71-.89,4.06-.55-.21-1.09-.43-1.64-.64.69-1.29,1.37-2.59,2.06-3.88l.47.46Z"/>
      <path class="cls-14" d="m1027.71,556.62c-1.09.01-2.18.03-3.28.04,1.29-1.65,2.57-3.3,3.86-4.95-.19,1.63-.39,3.27-.58,4.9Z"/>
      <path class="cls-14" d="m1010.92,517.17c1.09.16,2.17.33,3.26.49l-.32.99c-1-.48-2-.95-2.99-1.43,0,0,.05-.05.05-.05Z"/>
      <path class="cls-14" d="m1019.64,327.57c.23.64.54,1.27.65,1.93.03.19-.51.47-.79.71-.24-.64-.55-1.27-.66-1.94-.03-.18.52-.47.81-.7Z"/>
      <path class="cls-14" d="m986.68,497.27l-2.55.03c.13-.71.25-1.41.38-2.12.72.7,1.45,1.39,2.17,2.09Z"/>
      <path class="cls-14" d="m998.61,509.67c-.67-.08-1.35-.16-2.02-.23.23-.43.45-.86.68-1.28.38.56.76,1.12,1.14,1.69l.19-.17Z"/>
      <path class="cls-2" d="m1015.75,428.2l-1.12.33c-.11-.58-.23-1.16-.34-1.74.49.47.98.94,1.46,1.42Z"/>
      <path class="cls-6" d="m993.39,398.25c.49-.35.98-.7,1.47-1.04-.33.5-.67,1-1,1.5l-.47-.46Z"/>
      <path class="cls-2" d="m1017.93,429.82l.1-1.19c.64.26,1.28.51,1.93.77-.68.14-1.35.28-2.03.42Z"/>
      <polygon class="cls-6" points="1019.65 292.7 1019.94 293.49 1019.19 293.4 1019.65 292.7"/>
      <path class="cls-14" d="m1031.55,517.96c.28.01.56.01.84.01-.15.49-.31.97-.46,1.46-.27-.25-.62-.47-.78-.78-.07-.13.26-.46.4-.69Z"/>
      <path class="cls-2" d="m1010.87,517.22c-.63-.36-1.25-.73-1.88-1.09l1.93,1.04-.05.05Z"/>
      <path class="cls-7" d="m998.42,509.83c.34.16.72.26.99.5.13.11.05.47.06.71-.29-.46-.58-.92-.87-1.38,0,0-.19.17-.19.17Z"/>
      <path class="cls-15" d="m523.48,106.12c-2.88,49.9-6.36,97.91-8.09,145.99-.67,18.78,2.6,37.7,4.07,56.56.29,3.7.35,7.42.85,11.09,1.01,7.4-2.45,11.14-9.55,11.1-12.77-.06-25.73.25-36.84-7.74-6.81-4.9-13.07-4.95-20.45-.3-23.93,15.08-48.72,12.82-73.25,1.6-15.88-7.26-25.65-20.16-25.98-37.62-.53-28.35.26-56.74,1.12-85.09.34-11.07,2.55-22.07,3.62-33.13,3.36-34.78,29.52-61.39,64.54-63.67,27.17-1.77,54.45-2.03,81.68-2.35,6.23-.07,12.48,2.37,18.25,3.56Zm-121.44,134.14c2.63,15.78,3.85,29.79,7.55,43.11,3.02,10.89,10.06,13.61,21.19,11.69,14.29-2.46,19.9-7.35,22.17-25.09,3.43-26.9,5.23-54.02,7.53-81.06,1.12-13.1,2.25-26.24,2.39-39.37.04-3.68-3.36-10.51-5.34-10.57-10.56-.31-21.29.38-31.67,2.3-3.12.58-6.93,5.9-7.64,9.58-5.85,30.2-11.04,60.53-16.18,89.41Z"/>
      <path class="cls-15" d="m608.53,116.99c17.53-10.02,34.57-13.97,52.6-13.75,12.93.16,14.7,2.86,13.17,15.4-1.49,12.2-1.97,24.53-2.58,36.82-.3,5.99-.48,13.21-7.19,14.05-8.19,1.02-16.81-.57-25.07-2.02-1.29-.23-2.05-5.7-2.33-8.81-.39-4.24-.1-8.55-.1-12.83-1.12-.55-2.24-1.09-3.36-1.64-4.26,4-9.19,7.5-12.67,12.1-11.9,15.75-19.4,33.74-21.15,53.26-3.26,36.49-5.29,73.08-7.72,109.64-.86,13.02-2.25,15.11-15.47,15.13-12.62.02-25.24-1.32-38.23-2.08,0-18.43-.8-34.79.15-51.05,2.55-43.56,5.86-87.08,8.82-130.61.42-6.2.84-11.81-6.82-15.28-5.15-2.33-6.35-17.01-3.94-24.18,2.66-7.92,9.09-7.19,15.24-7.24,13.21-.11,26.41-.19,39.62-.14,8.25.03,15.8,1.41,17.03,13.24Z"/>
      <path class="cls-4" d="m758.1,100.42c1.95.84,2.65,1.32,3.4,1.45,16.94,2.78,18.87,5.45,17.52,22.47-.68,8.52-3.63,14.5-13.28,14.14-7.55-.28-9.9,3.68-10.48,10.51-2.14,25.01-5.02,49.96-6.85,74.98-1.32,18.04-1.86,36.17-1.76,54.25.03,5.74,3.18,11.48,5.06,17.17,2.67,8.11,6.61,15.99,7.94,24.31,1.42,8.9-2.78,13.88-11.6,13.86-11.85-.02-23.89-.94-35.51-3.18-14.06-2.71-20.2-13.5-21.36-26.84-1.17-13.5-2.49-27.15-1.68-40.62,2.04-34.09,5.26-68.12,7.94-102.17.54-6.92.79-13.86,1.17-20.68-8.09-4.09-21.12.14-19.99-15.34,1.15-15.78,2.71-18.47,20.84-22.72.61-5.62,1.16-11.68,1.93-17.72,1.38-10.79,4.7-14.79,15.52-15.47,11.46-.73,23-.04,34.51.14,7.51.11,10.11,4.21,9.09,11.34-.92,6.48-1.57,13-2.42,20.11Z"/>
    </g>
  </g>
</svg>